# xmcd
#
# Track frame offsets:
#	150
#	19244
#	49077
#	63316
#	81874
#	105126
#	117559
#	153214
#	194034
#	224885
#	236397
#	260523
#
# Disc length: 4718 seconds
#
# Revision: 1
# Processed by: cddbd v1.5.2PL0 Copyright (c) Steve Scherf et al.
# Submitted via: audiograbber 1.83.01
#
DISCID=a7126c0c
DTITLE=Savoy Brown - Blue matter
DYEAR=2004
DGENRE=Blues
TTITLE0=Train to nowhere
TTITLE1=Tolling bells
TTITLE2=She's got a ring in his nose and a ring on her hand
TTITLE3=Vicksburg Blues
TTITLE4=Don't turn me from your door
TTITLE5=Grits ain't groceries (All around the world)
TTITLE6=May be wrong
TTITLE7=Louisiana Blues
TTITLE8=It hurts me too
TTITLE9=Raise some thunder (bonustrack from 'Live and kickin' - 1990)
TTITLE10=Since you've been gone (bonustrack from 'Live and kickin' - 1990)
TTITLE11=Medley: A. I'm tired B. Hard way to go C. Louisiana Blues D. Street co
TTITLE11=rner talkin' E. Hellbound train F. Guitar solo (bonustrack from 'Live 
TTITLE11=and kickin' - 1990)
EXTD=
EXTT0=
EXTT1=
EXTT2=
EXTT3=
EXTT4=
EXTT5=
EXTT6=
EXTT7=
EXTT8=
EXTT9=
EXTT10=
EXTT11=
PLAYORDER=
